<?xml version="1.0" encoding="UTF-8" standalone="no"?>
<!DOCTYPE svg PUBLIC "-//W3C//DTD SVG 1.1//EN" "http://www.w3.org/Graphics/SVG/1.1/DTD/svg11.dtd">
<svg width="100%" height="100%" viewBox="0 0 766 276" version="1.1" xmlns="http://www.w3.org/2000/svg" xmlns:xlink="http://www.w3.org/1999/xlink" xml:space="preserve" xmlns:serif="http://www.serif.com/" style="fill-rule:evenodd;clip-rule:evenodd;stroke-linejoin:round;stroke-miterlimit:2;">
    <g transform="matrix(1,0,0,1,-2091.01,-1616.29)">
        <g transform="matrix(4.16667,0,0,4.16667,0,0)">
            <g transform="matrix(1,0,0,-1,0,0.00012)">
                <path d="M501.843,-453.979C573.503,-434.004 624.095,-427.768 685.52,-422.237C670.503,-408.787 655.296,-397.709 638.547,-387.91C596.695,-403.558 546.266,-429.545 501.843,-453.979Z" style="fill:rgb(238,52,35);fill-rule:nonzero;"/>
            </g>
        </g>
        <g transform="matrix(4.16667,0,0,4.16667,0,0)">
            <g transform="matrix(1,0,0,-1,0,-10.3866)">
                <path d="M612.332,-415.957L612.332,-419.445L620.205,-419.445L620.205,-436.209L624.866,-436.209L624.866,-419.445L632.769,-419.445L632.769,-415.957L612.332,-415.957ZM642.231,-419.679L645.848,-427.749L638.239,-427.749L642.231,-419.679ZM639.458,-415.957L629.309,-436.209L634.264,-436.209L636.553,-431.263L647.445,-431.263L649.768,-436.319L654.945,-436.209L645.069,-415.957L639.458,-415.957Z" style="fill:white;fill-rule:nonzero;"/>
            </g>
        </g>
        <g transform="matrix(4.16667,0,0,4.16667,0,0)">
            <g transform="matrix(1,0,0,-1,0,-10.4969)">
                <path d="M596.186,-419.332L601.936,-419.332C603.241,-419.353 604.144,-419.435 604.746,-420.339C605.035,-420.77 605.197,-421.322 605.197,-421.909C605.197,-422.5 605.031,-423.013 604.705,-423.422C603.83,-424.533 602.318,-424.533 601.093,-424.533L596.186,-424.533L596.186,-419.332ZM596.186,-436.319L596.186,-427.771L600.561,-427.771C600.94,-428.298 604.135,-434.464 605.09,-436.319L610.576,-436.319C609.697,-434.77 606.893,-429.898 605.383,-427.482C608.117,-426.787 609.72,-424.839 609.72,-422.074C609.72,-419.659 608.515,-418.295 607.793,-417.692C605.999,-416.133 604.036,-416.095 602.318,-416.067L591.58,-416.067L591.58,-436.319L596.186,-436.319Z" style="fill:white;fill-rule:nonzero;"/>
            </g>
        </g>
    </g>
</svg>
